<svg version="1.1" xmlns="http://www.w3.org/2000/svg" viewBox="0 0 672.9140625 280.83203125" width="1345.828125" height="561.6640625">
  <!-- svg-source:excalidraw -->
  
  <defs>
    <style class="style-fonts">
      @font-face {
        font-family: "Virgil";
        src: url("https://unpkg.com/@excalidraw/excalidraw@undefined/dist/excalidraw-assets/Virgil.woff2");
      }
      @font-face {
        font-family: "Cascadia";
        src: url("https://unpkg.com/@excalidraw/excalidraw@undefined/dist/excalidraw-assets/Cascadia.woff2");
      }
      @font-face {
        font-family: "Assistant";
        src: url("https://unpkg.com/@excalidraw/excalidraw@undefined/dist/excalidraw-assets/Assistant-Regular.woff2");
      }
    </style>
    
  </defs>
  <rect x="0" y="0" width="672.9140625" height="280.83203125" fill="#ffffff"></rect><g stroke-linecap="round" transform="translate(10 25.73828125) rotate(0 95.787109375 122.546875)"><path d="M32 0 C78.33 -1.4, 126.66 -0.93, 159.57 0 M32 0 C79.26 -0.15, 124.8 -0.15, 159.57 0 M159.57 0 C180.56 -1.09, 192.92 10.54, 191.57 32 M159.57 0 C179.67 1.71, 189.58 9.39, 191.57 32 M191.57 32 C191.77 88.72, 191.27 145.01, 191.57 213.09 M191.57 32 C191.57 96.09, 191.71 159.33, 191.57 213.09 M191.57 213.09 C189.73 233.78, 180.55 245.81, 159.57 245.09 M191.57 213.09 C190.55 236.68, 181.09 247.14, 159.57 245.09 M159.57 245.09 C127.04 246.19, 95.99 244.95, 32 245.09 M159.57 245.09 C122.01 246.66, 85.93 245.54, 32 245.09 M32 245.09 C8.73 245.34, -0.36 235.57, 0 213.09 M32 245.09 C9 247.02, 0.65 233.94, 0 213.09 M0 213.09 C-0.28 146.13, 2 75.4, 0 32 M0 213.09 C-0.1 173.72, 0.77 133.56, 0 32 M0 32 C1.11 12.64, 10.84 -0.28, 32 0 M0 32 C-1.57 10.52, 11.79 -1.49, 32 0" stroke="#1e1e1e" stroke-width="2" fill="none"></path></g><g stroke-linecap="round" transform="translate(471.33984375 25.23046875) rotate(0 95.787109375 122.546875)"><path d="M32 0 C71.99 -0.19, 110.9 0.75, 159.57 0 M32 0 C68.28 -0.56, 104.42 -0.64, 159.57 0 M159.57 0 C180.32 -1.77, 191.28 9.12, 191.57 32 M159.57 0 C181.38 -1.17, 192.26 10.48, 191.57 32 M191.57 32 C189.67 105.65, 190.39 176.06, 191.57 213.09 M191.57 32 C190.23 71.32, 188.95 109.81, 191.57 213.09 M191.57 213.09 C192.21 232.54, 182.08 243.59, 159.57 245.09 M191.57 213.09 C190.03 232.89, 182.87 244.95, 159.57 245.09 M159.57 245.09 C119.07 245.87, 81.53 244.74, 32 245.09 M159.57 245.09 C126.2 244.93, 92.68 244.7, 32 245.09 M32 245.09 C9.33 246.46, -0.99 232.44, 0 213.09 M32 245.09 C9.94 247.01, 1.62 233.61, 0 213.09 M0 213.09 C1.19 174.85, 2.99 133.48, 0 32 M0 213.09 C0.81 156.24, 2.47 99.84, 0 32 M0 32 C0.72 11.69, 11.29 -1.4, 32 0 M0 32 C0.71 10.27, 9.42 1.55, 32 0" stroke="#1e1e1e" stroke-width="2" fill="none"></path></g><g stroke-linecap="round" transform="translate(260.296875 10) rotate(0 57.76953125 62.654296875)"><path d="M28.88 0 C45.5 -0.86, 61.41 1.45, 86.65 0 M28.88 0 C44.28 0.5, 59.31 0.77, 86.65 0 M86.65 0 C106.48 -0.42, 117.12 7.84, 115.54 28.88 M86.65 0 C106.02 -2.19, 117.5 10.07, 115.54 28.88 M115.54 28.88 C115.95 46.22, 115.26 66.98, 115.54 96.42 M115.54 28.88 C116 45.59, 115.23 62.51, 115.54 96.42 M115.54 96.42 C116.52 114.38, 105.21 125.93, 86.65 125.31 M115.54 96.42 C117.61 117.64, 107.38 126.61, 86.65 125.31 M86.65 125.31 C70.83 126.81, 52.05 124, 28.88 125.31 M86.65 125.31 C68.05 124.79, 50.6 124.93, 28.88 125.31 M28.88 125.31 C8.37 126.77, -0.47 116.38, 0 96.42 M28.88 125.31 C10.68 126.48, -0.69 114.7, 0 96.42 M0 96.42 C0.72 83.28, -2.31 69.11, 0 28.88 M0 96.42 C0.65 82.56, 0.01 68.67, 0 28.88 M0 28.88 C0.54 10.19, 9.17 -0.18, 28.88 0 M0 28.88 C-1.39 10.3, 8.47 0.75, 28.88 0" stroke="#1e1e1e" stroke-width="2" fill="none"></path></g><g stroke-linecap="round"><g transform="translate(101.0703125 134.625) rotate(0 95.4765625 -22.140625)"><path d="M0.26 -1.08 C32.11 -8.36, 159.55 -37.73, 191.52 -44.86 M-1.06 0.96 C30.65 -6.06, 158.71 -35.79, 190.88 -43.63" stroke="#1e1e1e" stroke-width="2" fill="none"></path></g><g transform="translate(101.0703125 134.625) rotate(0 95.4765625 -22.140625)"><path d="M165.81 -27.15 C172.61 -31.81, 181.88 -36.37, 190.88 -43.63 M165.81 -27.15 C174.3 -32.46, 182.08 -38.28, 190.88 -43.63" stroke="#1e1e1e" stroke-width="2" fill="none"></path></g><g transform="translate(101.0703125 134.625) rotate(0 95.4765625 -22.140625)"><path d="M161.08 -47.12 C169.27 -45.06, 180.14 -42.9, 190.88 -43.63 M161.08 -47.12 C171.2 -45.86, 180.54 -45.08, 190.88 -43.63" stroke="#1e1e1e" stroke-width="2" fill="none"></path></g></g><mask></mask><g stroke-linecap="round"><g transform="translate(323.74609375 70.33203125) rotate(0 138.880859375 56.4765625)"><path d="M0.61 -0.08 C47.19 18.76, 232.5 93.6, 278.83 112.3 M-0.53 -1.16 C46.04 17.88, 231.97 94.47, 278.45 113.5" stroke="#1e1e1e" stroke-width="2" fill="none"></path></g><g transform="translate(323.74609375 70.33203125) rotate(0 138.880859375 56.4765625)"><path d="M248.47 112.28 C255.78 114.21, 262.27 114.18, 278.45 113.5 M248.47 112.28 C256.13 113.18, 262.26 113.19, 278.45 113.5" stroke="#1e1e1e" stroke-width="2" fill="none"></path></g><g transform="translate(323.74609375 70.33203125) rotate(0 138.880859375 56.4765625)"><path d="M256.27 93.3 C261.53 99.98, 266.08 104.67, 278.45 113.5 M256.27 93.3 C262.05 98.55, 266.38 102.96, 278.45 113.5" stroke="#1e1e1e" stroke-width="2" fill="none"></path></g></g><mask></mask></svg>